<!DOCTYPE svg PUBLIC "-//W3C//DTD SVG 1.1//EN" "http://www.w3.org/Graphics/SVG/1.1/DTD/svg11.dtd">
<!-- Uploaded to: SVG Repo, www.svgrepo.com, Transformed by: SVG Repo Mixer Tools -->
<svg fill="#000000" width="800px" height="800px" viewBox="0 0 24 24" id="clipboard" data-name="Flat Line" xmlns="http://www.w3.org/2000/svg" class="icon flat-line">
<g id="SVGRepo_bgCarrier" stroke-width="0"/>
<g id="SVGRepo_tracerCarrier" stroke-linecap="round" stroke-linejoin="round"/>
<g id="SVGRepo_iconCarrier">
<path id="secondary" d="M18,5H15V7H9V5H6A1,1,0,0,0,5,6V20a1,1,0,0,0,1,1H18a1,1,0,0,0,1-1V6A1,1,0,0,0,18,5Z" style="fill: #ffffff; stroke-width: 2;"/>
<path id="primary" d="M15,5h3a1,1,0,0,1,1,1V20a1,1,0,0,1-1,1H6a1,1,0,0,1-1-1V6A1,1,0,0,1,6,5H9" style="fill: none; stroke: #000000; stroke-linecap: round; stroke-linejoin: round; stroke-width: 2;"/>
<path id="primary-2" data-name="primary" d="M15,7H9V4a1,1,0,0,1,1-1h4a1,1,0,0,1,1,1ZM9,17h6M9,13h6" style="fill: none; stroke: #000000; stroke-linecap: round; stroke-linejoin: round; stroke-width: 2;"/>
</g>
</svg>